<mxfile host="app.diagrams.net" modified="2021-11-01T21:45:19.039Z" agent="5.0 (X11)" etag="2FP0bpMENiMBm6JWfqHz" version="15.6.3" type="github">
  <diagram id="Hn6ZXTN4Zp_iwNabYg73" name="Page-1">
    <mxGraphModel dx="2272" dy="724" grid="1" gridSize="10" guides="1" tooltips="1" connect="1" arrows="1" fold="1" page="1" pageScale="1" pageWidth="850" pageHeight="1100" math="0" shadow="0">
      <root>
        <mxCell id="0" />
        <mxCell id="1" parent="0" />
        <mxCell id="F12BsqanBESnn4j_Z6M4-1" value="InterfaceController" style="swimlane;fontStyle=1;align=center;verticalAlign=top;childLayout=stackLayout;horizontal=1;startSize=26;horizontalStack=0;resizeParent=1;resizeParentMax=0;resizeLast=0;collapsible=1;marginBottom=0;" vertex="1" parent="1">
          <mxGeometry x="30" y="300" width="370" height="180" as="geometry" />
        </mxCell>
        <mxCell id="F12BsqanBESnn4j_Z6M4-2" value="- LOGGER:Logger" style="text;strokeColor=none;fillColor=none;align=left;verticalAlign=top;spacingLeft=4;spacingRight=4;overflow=hidden;rotatable=0;points=[[0,0.5],[1,0.5]];portConstraint=eastwest;" vertex="1" parent="F12BsqanBESnn4j_Z6M4-1">
          <mxGeometry y="26" width="370" height="26" as="geometry" />
        </mxCell>
        <mxCell id="F12BsqanBESnn4j_Z6M4-7" value="- gson:Gson" style="text;strokeColor=none;fillColor=none;align=left;verticalAlign=top;spacingLeft=4;spacingRight=4;overflow=hidden;rotatable=0;points=[[0,0.5],[1,0.5]];portConstraint=eastwest;" vertex="1" parent="F12BsqanBESnn4j_Z6M4-1">
          <mxGeometry y="52" width="370" height="26" as="geometry" />
        </mxCell>
        <mxCell id="F12BsqanBESnn4j_Z6M4-3" value="" style="line;strokeWidth=1;fillColor=none;align=left;verticalAlign=middle;spacingTop=-1;spacingLeft=3;spacingRight=3;rotatable=0;labelPosition=right;points=[];portConstraint=eastwest;" vertex="1" parent="F12BsqanBESnn4j_Z6M4-1">
          <mxGeometry y="78" width="370" height="8" as="geometry" />
        </mxCell>
        <mxCell id="F12BsqanBESnn4j_Z6M4-4" value="+ getRoot():String&#xa;+ classifyCode(newCode:CodeToBeClassified):String&#xa;+ PUTsendImproveModelData(newCode:ImproveModelData):String&#xa;+ sendImproveModelData(newCode:ImproveModelData):String&#xa;+ getTransactionStatus(id:String):String&#xa;+ deleteTransaction(id:String):String&#xa;" style="text;strokeColor=none;fillColor=none;align=left;verticalAlign=top;spacingLeft=4;spacingRight=4;overflow=hidden;rotatable=0;points=[[0,0.5],[1,0.5]];portConstraint=eastwest;" vertex="1" parent="F12BsqanBESnn4j_Z6M4-1">
          <mxGeometry y="86" width="370" height="94" as="geometry" />
        </mxCell>
        <mxCell id="F12BsqanBESnn4j_Z6M4-6" value="controllers" style="swimlane;" vertex="1" parent="1">
          <mxGeometry x="10" y="240" width="410" height="260" as="geometry" />
        </mxCell>
        <mxCell id="F12BsqanBESnn4j_Z6M4-8" value="services" style="swimlane;" vertex="1" parent="1">
          <mxGeometry x="530" y="610" width="310" height="280" as="geometry" />
        </mxCell>
        <mxCell id="F12BsqanBESnn4j_Z6M4-37" value="RedisInterface" style="swimlane;fontStyle=1;align=center;verticalAlign=top;childLayout=stackLayout;horizontal=1;startSize=26;horizontalStack=0;resizeParent=1;resizeParentMax=0;resizeLast=0;collapsible=1;marginBottom=0;" vertex="1" parent="F12BsqanBESnn4j_Z6M4-8">
          <mxGeometry x="10" y="30" width="160" height="110" as="geometry" />
        </mxCell>
        <mxCell id="F12BsqanBESnn4j_Z6M4-38" value="- template:RedisTemplate&#xa;- key:String&#xa;" style="text;strokeColor=none;fillColor=none;align=left;verticalAlign=top;spacingLeft=4;spacingRight=4;overflow=hidden;rotatable=0;points=[[0,0.5],[1,0.5]];portConstraint=eastwest;" vertex="1" parent="F12BsqanBESnn4j_Z6M4-37">
          <mxGeometry y="26" width="160" height="34" as="geometry" />
        </mxCell>
        <mxCell id="F12BsqanBESnn4j_Z6M4-39" value="" style="line;strokeWidth=1;fillColor=none;align=left;verticalAlign=middle;spacingTop=-1;spacingLeft=3;spacingRight=3;rotatable=0;labelPosition=right;points=[];portConstraint=eastwest;" vertex="1" parent="F12BsqanBESnn4j_Z6M4-37">
          <mxGeometry y="60" width="160" height="8" as="geometry" />
        </mxCell>
        <mxCell id="F12BsqanBESnn4j_Z6M4-40" value="+ getNewId():Integer&#xa;+ testConnection()&#xa;" style="text;strokeColor=none;fillColor=none;align=left;verticalAlign=top;spacingLeft=4;spacingRight=4;overflow=hidden;rotatable=0;points=[[0,0.5],[1,0.5]];portConstraint=eastwest;" vertex="1" parent="F12BsqanBESnn4j_Z6M4-37">
          <mxGeometry y="68" width="160" height="42" as="geometry" />
        </mxCell>
        <mxCell id="F12BsqanBESnn4j_Z6M4-41" value="KafkaProducer" style="swimlane;fontStyle=1;align=center;verticalAlign=top;childLayout=stackLayout;horizontal=1;startSize=26;horizontalStack=0;resizeParent=1;resizeParentMax=0;resizeLast=0;collapsible=1;marginBottom=0;" vertex="1" parent="F12BsqanBESnn4j_Z6M4-8">
          <mxGeometry x="10" y="150" width="260" height="86" as="geometry" />
        </mxCell>
        <mxCell id="F12BsqanBESnn4j_Z6M4-42" value="- kafkaTemp:KafkaTemplate" style="text;strokeColor=none;fillColor=none;align=left;verticalAlign=top;spacingLeft=4;spacingRight=4;overflow=hidden;rotatable=0;points=[[0,0.5],[1,0.5]];portConstraint=eastwest;" vertex="1" parent="F12BsqanBESnn4j_Z6M4-41">
          <mxGeometry y="26" width="260" height="26" as="geometry" />
        </mxCell>
        <mxCell id="F12BsqanBESnn4j_Z6M4-43" value="" style="line;strokeWidth=1;fillColor=none;align=left;verticalAlign=middle;spacingTop=-1;spacingLeft=3;spacingRight=3;rotatable=0;labelPosition=right;points=[];portConstraint=eastwest;" vertex="1" parent="F12BsqanBESnn4j_Z6M4-41">
          <mxGeometry y="52" width="260" height="8" as="geometry" />
        </mxCell>
        <mxCell id="F12BsqanBESnn4j_Z6M4-44" value="+ publishToTopic(message:String,topic:String)" style="text;strokeColor=none;fillColor=none;align=left;verticalAlign=top;spacingLeft=4;spacingRight=4;overflow=hidden;rotatable=0;points=[[0,0.5],[1,0.5]];portConstraint=eastwest;" vertex="1" parent="F12BsqanBESnn4j_Z6M4-41">
          <mxGeometry y="60" width="260" height="26" as="geometry" />
        </mxCell>
        <mxCell id="F12BsqanBESnn4j_Z6M4-9" value="repositories    " style="swimlane;" vertex="1" parent="1">
          <mxGeometry x="100" y="570" width="200" height="150" as="geometry" />
        </mxCell>
        <mxCell id="F12BsqanBESnn4j_Z6M4-33" value="TransactionRepository" style="swimlane;fontStyle=1;align=center;verticalAlign=top;childLayout=stackLayout;horizontal=1;startSize=26;horizontalStack=0;resizeParent=1;resizeParentMax=0;resizeLast=0;collapsible=1;marginBottom=0;" vertex="1" parent="F12BsqanBESnn4j_Z6M4-9">
          <mxGeometry x="10" y="53" width="180" height="90" as="geometry" />
        </mxCell>
        <mxCell id="F12BsqanBESnn4j_Z6M4-35" value="" style="line;strokeWidth=1;fillColor=none;align=left;verticalAlign=middle;spacingTop=-1;spacingLeft=3;spacingRight=3;rotatable=0;labelPosition=right;points=[];portConstraint=eastwest;" vertex="1" parent="F12BsqanBESnn4j_Z6M4-33">
          <mxGeometry y="26" width="180" height="8" as="geometry" />
        </mxCell>
        <mxCell id="F12BsqanBESnn4j_Z6M4-36" value="+ save(tran:TransactionStatus)&#xa;+ findById(String id)&#xa;..." style="text;strokeColor=none;fillColor=none;align=left;verticalAlign=top;spacingLeft=4;spacingRight=4;overflow=hidden;rotatable=0;points=[[0,0.5],[1,0.5]];portConstraint=eastwest;" vertex="1" parent="F12BsqanBESnn4j_Z6M4-33">
          <mxGeometry y="34" width="180" height="56" as="geometry" />
        </mxCell>
        <mxCell id="F12BsqanBESnn4j_Z6M4-10" value="aspects" style="swimlane;" vertex="1" parent="1">
          <mxGeometry x="570" y="180" width="200" height="200" as="geometry" />
        </mxCell>
        <mxCell id="F12BsqanBESnn4j_Z6M4-13" value="LoggingAspect" style="swimlane;fontStyle=1;align=center;verticalAlign=top;childLayout=stackLayout;horizontal=1;startSize=26;horizontalStack=0;resizeParent=1;resizeParentMax=0;resizeLast=0;collapsible=1;marginBottom=0;" vertex="1" parent="F12BsqanBESnn4j_Z6M4-10">
          <mxGeometry x="10" y="50" width="160" height="86" as="geometry" />
        </mxCell>
        <mxCell id="F12BsqanBESnn4j_Z6M4-14" value="-  log:Logger" style="text;strokeColor=none;fillColor=none;align=left;verticalAlign=top;spacingLeft=4;spacingRight=4;overflow=hidden;rotatable=0;points=[[0,0.5],[1,0.5]];portConstraint=eastwest;" vertex="1" parent="F12BsqanBESnn4j_Z6M4-13">
          <mxGeometry y="26" width="160" height="26" as="geometry" />
        </mxCell>
        <mxCell id="F12BsqanBESnn4j_Z6M4-15" value="" style="line;strokeWidth=1;fillColor=none;align=left;verticalAlign=middle;spacingTop=-1;spacingLeft=3;spacingRight=3;rotatable=0;labelPosition=right;points=[];portConstraint=eastwest;" vertex="1" parent="F12BsqanBESnn4j_Z6M4-13">
          <mxGeometry y="52" width="160" height="8" as="geometry" />
        </mxCell>
        <mxCell id="F12BsqanBESnn4j_Z6M4-16" value="+ ..." style="text;strokeColor=none;fillColor=none;align=left;verticalAlign=top;spacingLeft=4;spacingRight=4;overflow=hidden;rotatable=0;points=[[0,0.5],[1,0.5]];portConstraint=eastwest;" vertex="1" parent="F12BsqanBESnn4j_Z6M4-13">
          <mxGeometry y="60" width="160" height="26" as="geometry" />
        </mxCell>
        <mxCell id="F12BsqanBESnn4j_Z6M4-11" value="config" style="swimlane;" vertex="1" parent="1">
          <mxGeometry x="60" y="10" width="310" height="210" as="geometry" />
        </mxCell>
        <mxCell id="F12BsqanBESnn4j_Z6M4-17" value="RedisConfiguration" style="swimlane;fontStyle=1;align=center;verticalAlign=top;childLayout=stackLayout;horizontal=1;startSize=26;horizontalStack=0;resizeParent=1;resizeParentMax=0;resizeLast=0;collapsible=1;marginBottom=0;" vertex="1" parent="F12BsqanBESnn4j_Z6M4-11">
          <mxGeometry x="10" y="56" width="290" height="140" as="geometry" />
        </mxCell>
        <mxCell id="F12BsqanBESnn4j_Z6M4-18" value="-  host:String&#xa;- port:int&#xa;- database:int&#xa;- password:String&#xa;" style="text;strokeColor=none;fillColor=none;align=left;verticalAlign=top;spacingLeft=4;spacingRight=4;overflow=hidden;rotatable=0;points=[[0,0.5],[1,0.5]];portConstraint=eastwest;" vertex="1" parent="F12BsqanBESnn4j_Z6M4-17">
          <mxGeometry y="26" width="290" height="64" as="geometry" />
        </mxCell>
        <mxCell id="F12BsqanBESnn4j_Z6M4-19" value="" style="line;strokeWidth=1;fillColor=none;align=left;verticalAlign=middle;spacingTop=-1;spacingLeft=3;spacingRight=3;rotatable=0;labelPosition=right;points=[];portConstraint=eastwest;" vertex="1" parent="F12BsqanBESnn4j_Z6M4-17">
          <mxGeometry y="90" width="290" height="8" as="geometry" />
        </mxCell>
        <mxCell id="F12BsqanBESnn4j_Z6M4-20" value="+ jedisConnectionFactory():JedisConnectionFactory&#xa;+ redisTemplate():RedisTemplate&#xa;" style="text;strokeColor=none;fillColor=none;align=left;verticalAlign=top;spacingLeft=4;spacingRight=4;overflow=hidden;rotatable=0;points=[[0,0.5],[1,0.5]];portConstraint=eastwest;" vertex="1" parent="F12BsqanBESnn4j_Z6M4-17">
          <mxGeometry y="98" width="290" height="42" as="geometry" />
        </mxCell>
        <mxCell id="F12BsqanBESnn4j_Z6M4-12" value="domains" style="swimlane;direction=east;startSize=20;" vertex="1" parent="1">
          <mxGeometry x="-410" y="530" width="420" height="390" as="geometry" />
        </mxCell>
        <mxCell id="F12BsqanBESnn4j_Z6M4-29" value="ImproveModelData" style="swimlane;fontStyle=1;align=center;verticalAlign=top;childLayout=stackLayout;horizontal=1;startSize=26;horizontalStack=0;resizeParent=1;resizeParentMax=0;resizeLast=0;collapsible=1;marginBottom=0;" vertex="1" parent="F12BsqanBESnn4j_Z6M4-12">
          <mxGeometry x="20" y="190" width="190" height="184" as="geometry" />
        </mxCell>
        <mxCell id="F12BsqanBESnn4j_Z6M4-46" value="- ids:String&#xa;- error:String&#xa;- source:String&#xa;-solution:String&#xa;- codeWithNoCOmments:String&#xa;-SolutionWithNoComments:String&#xa;- user:String- group:String&#xa;- code:String&#xa;" style="text;strokeColor=none;fillColor=none;align=left;verticalAlign=top;spacingLeft=4;spacingRight=4;overflow=hidden;rotatable=0;points=[[0,0.5],[1,0.5]];portConstraint=eastwest;" vertex="1" parent="F12BsqanBESnn4j_Z6M4-29">
          <mxGeometry y="26" width="190" height="124" as="geometry" />
        </mxCell>
        <mxCell id="F12BsqanBESnn4j_Z6M4-31" value="" style="line;strokeWidth=1;fillColor=none;align=left;verticalAlign=middle;spacingTop=-1;spacingLeft=3;spacingRight=3;rotatable=0;labelPosition=right;points=[];portConstraint=eastwest;" vertex="1" parent="F12BsqanBESnn4j_Z6M4-29">
          <mxGeometry y="150" width="190" height="8" as="geometry" />
        </mxCell>
        <mxCell id="F12BsqanBESnn4j_Z6M4-32" value="+ getters and setters" style="text;strokeColor=none;fillColor=none;align=left;verticalAlign=top;spacingLeft=4;spacingRight=4;overflow=hidden;rotatable=0;points=[[0,0.5],[1,0.5]];portConstraint=eastwest;" vertex="1" parent="F12BsqanBESnn4j_Z6M4-29">
          <mxGeometry y="158" width="190" height="26" as="geometry" />
        </mxCell>
        <mxCell id="F12BsqanBESnn4j_Z6M4-25" value="CodeToBeClassified" style="swimlane;fontStyle=1;align=center;verticalAlign=top;childLayout=stackLayout;horizontal=1;startSize=26;horizontalStack=0;resizeParent=1;resizeParentMax=0;resizeLast=0;collapsible=1;marginBottom=0;" vertex="1" parent="F12BsqanBESnn4j_Z6M4-12">
          <mxGeometry x="47.5" y="50" width="135" height="124" as="geometry" />
        </mxCell>
        <mxCell id="F12BsqanBESnn4j_Z6M4-26" value="- ids:String&#xa;- user:String&#xa;- group:String&#xa;- code:String&#xa;" style="text;strokeColor=none;fillColor=none;align=left;verticalAlign=top;spacingLeft=4;spacingRight=4;overflow=hidden;rotatable=0;points=[[0,0.5],[1,0.5]];portConstraint=eastwest;" vertex="1" parent="F12BsqanBESnn4j_Z6M4-25">
          <mxGeometry y="26" width="135" height="64" as="geometry" />
        </mxCell>
        <mxCell id="F12BsqanBESnn4j_Z6M4-27" value="" style="line;strokeWidth=1;fillColor=none;align=left;verticalAlign=middle;spacingTop=-1;spacingLeft=3;spacingRight=3;rotatable=0;labelPosition=right;points=[];portConstraint=eastwest;" vertex="1" parent="F12BsqanBESnn4j_Z6M4-25">
          <mxGeometry y="90" width="135" height="8" as="geometry" />
        </mxCell>
        <mxCell id="F12BsqanBESnn4j_Z6M4-28" value="+ getters and setters" style="text;strokeColor=none;fillColor=none;align=left;verticalAlign=top;spacingLeft=4;spacingRight=4;overflow=hidden;rotatable=0;points=[[0,0.5],[1,0.5]];portConstraint=eastwest;" vertex="1" parent="F12BsqanBESnn4j_Z6M4-25">
          <mxGeometry y="98" width="135" height="26" as="geometry" />
        </mxCell>
        <mxCell id="F12BsqanBESnn4j_Z6M4-21" value="TransactionStatus" style="swimlane;fontStyle=1;align=center;verticalAlign=top;childLayout=stackLayout;horizontal=1;startSize=26;horizontalStack=0;resizeParent=1;resizeParentMax=0;resizeLast=0;collapsible=1;marginBottom=0;" vertex="1" parent="F12BsqanBESnn4j_Z6M4-12">
          <mxGeometry x="235" y="50" width="160" height="140" as="geometry" />
        </mxCell>
        <mxCell id="F12BsqanBESnn4j_Z6M4-45" value="- ids:String&#xa;- status:String&#xa;- resultError:String&#xa;- resultMutation:String&#xa;" style="text;strokeColor=none;fillColor=none;align=left;verticalAlign=top;spacingLeft=4;spacingRight=4;overflow=hidden;rotatable=0;points=[[0,0.5],[1,0.5]];portConstraint=eastwest;" vertex="1" parent="F12BsqanBESnn4j_Z6M4-21">
          <mxGeometry y="26" width="160" height="64" as="geometry" />
        </mxCell>
        <mxCell id="F12BsqanBESnn4j_Z6M4-23" value="" style="line;strokeWidth=1;fillColor=none;align=left;verticalAlign=middle;spacingTop=-1;spacingLeft=3;spacingRight=3;rotatable=0;labelPosition=right;points=[];portConstraint=eastwest;" vertex="1" parent="F12BsqanBESnn4j_Z6M4-21">
          <mxGeometry y="90" width="160" height="8" as="geometry" />
        </mxCell>
        <mxCell id="F12BsqanBESnn4j_Z6M4-24" value="+ getters and setters&#xa;+ toString():String&#xa;" style="text;strokeColor=none;fillColor=none;align=left;verticalAlign=top;spacingLeft=4;spacingRight=4;overflow=hidden;rotatable=0;points=[[0,0.5],[1,0.5]];portConstraint=eastwest;" vertex="1" parent="F12BsqanBESnn4j_Z6M4-21">
          <mxGeometry y="98" width="160" height="42" as="geometry" />
        </mxCell>
        <mxCell id="F12BsqanBESnn4j_Z6M4-47" style="edgeStyle=orthogonalEdgeStyle;rounded=0;orthogonalLoop=1;jettySize=auto;html=1;exitX=1.003;exitY=0.077;exitDx=0;exitDy=0;entryX=0;entryY=0.25;entryDx=0;entryDy=0;exitPerimeter=0;" edge="1" parent="1" source="F12BsqanBESnn4j_Z6M4-7" target="F12BsqanBESnn4j_Z6M4-37">
          <mxGeometry relative="1" as="geometry" />
        </mxCell>
        <mxCell id="F12BsqanBESnn4j_Z6M4-48" style="edgeStyle=orthogonalEdgeStyle;rounded=0;orthogonalLoop=1;jettySize=auto;html=1;exitX=1;exitY=0.5;exitDx=0;exitDy=0;entryX=0;entryY=0.25;entryDx=0;entryDy=0;" edge="1" parent="1" source="F12BsqanBESnn4j_Z6M4-7" target="F12BsqanBESnn4j_Z6M4-41">
          <mxGeometry relative="1" as="geometry">
            <Array as="points">
              <mxPoint x="450" y="365" />
              <mxPoint x="450" y="782" />
            </Array>
          </mxGeometry>
        </mxCell>
        <mxCell id="F12BsqanBESnn4j_Z6M4-49" style="edgeStyle=orthogonalEdgeStyle;rounded=0;orthogonalLoop=1;jettySize=auto;html=1;exitX=0.468;exitY=1.021;exitDx=0;exitDy=0;exitPerimeter=0;" edge="1" parent="1" source="F12BsqanBESnn4j_Z6M4-4" target="F12BsqanBESnn4j_Z6M4-9">
          <mxGeometry relative="1" as="geometry">
            <Array as="points">
              <mxPoint x="203" y="520" />
              <mxPoint x="203" y="520" />
            </Array>
          </mxGeometry>
        </mxCell>
        <mxCell id="F12BsqanBESnn4j_Z6M4-50" style="edgeStyle=orthogonalEdgeStyle;rounded=0;orthogonalLoop=1;jettySize=auto;html=1;exitX=0.005;exitY=0.038;exitDx=0;exitDy=0;entryX=0;entryY=0.103;entryDx=0;entryDy=0;entryPerimeter=0;exitPerimeter=0;" edge="1" parent="1" source="F12BsqanBESnn4j_Z6M4-2" target="F12BsqanBESnn4j_Z6M4-29">
          <mxGeometry relative="1" as="geometry">
            <Array as="points">
              <mxPoint x="-450" y="327" />
              <mxPoint x="-450" y="739" />
            </Array>
          </mxGeometry>
        </mxCell>
        <mxCell id="F12BsqanBESnn4j_Z6M4-51" style="edgeStyle=orthogonalEdgeStyle;rounded=0;orthogonalLoop=1;jettySize=auto;html=1;exitX=0;exitY=0.5;exitDx=0;exitDy=0;entryX=0.5;entryY=0;entryDx=0;entryDy=0;" edge="1" parent="1" source="F12BsqanBESnn4j_Z6M4-2" target="F12BsqanBESnn4j_Z6M4-25">
          <mxGeometry relative="1" as="geometry">
            <Array as="points">
              <mxPoint x="-295" y="339" />
            </Array>
          </mxGeometry>
        </mxCell>
        <mxCell id="F12BsqanBESnn4j_Z6M4-52" style="edgeStyle=orthogonalEdgeStyle;rounded=0;orthogonalLoop=1;jettySize=auto;html=1;exitX=0;exitY=0.5;exitDx=0;exitDy=0;entryX=0.5;entryY=0;entryDx=0;entryDy=0;" edge="1" parent="1" source="F12BsqanBESnn4j_Z6M4-7" target="F12BsqanBESnn4j_Z6M4-21">
          <mxGeometry relative="1" as="geometry">
            <Array as="points">
              <mxPoint x="30" y="360" />
              <mxPoint x="-95" y="360" />
            </Array>
          </mxGeometry>
        </mxCell>
        <mxCell id="F12BsqanBESnn4j_Z6M4-53" value="Composed" style="endArrow=open;html=1;endSize=12;startArrow=diamondThin;startSize=14;startFill=0;edgeStyle=orthogonalEdgeStyle;rounded=0;entryX=1;entryY=0.136;entryDx=0;entryDy=0;entryPerimeter=0;exitX=0;exitY=0.25;exitDx=0;exitDy=0;" edge="1" parent="1" source="F12BsqanBESnn4j_Z6M4-33" target="F12BsqanBESnn4j_Z6M4-21">
          <mxGeometry relative="1" as="geometry">
            <mxPoint x="270" y="580" as="sourcePoint" />
            <mxPoint x="430" y="580" as="targetPoint" />
          </mxGeometry>
        </mxCell>
        <mxCell id="F12BsqanBESnn4j_Z6M4-54" value="0..n" style="edgeLabel;resizable=0;html=1;align=left;verticalAlign=top;" connectable="0" vertex="1" parent="F12BsqanBESnn4j_Z6M4-53">
          <mxGeometry x="-1" relative="1" as="geometry">
            <mxPoint x="-34" y="-1" as="offset" />
          </mxGeometry>
        </mxCell>
        <mxCell id="F12BsqanBESnn4j_Z6M4-55" value="1" style="edgeLabel;resizable=0;html=1;align=right;verticalAlign=top;" connectable="0" vertex="1" parent="F12BsqanBESnn4j_Z6M4-53">
          <mxGeometry x="1" relative="1" as="geometry">
            <mxPoint x="14" y="2" as="offset" />
          </mxGeometry>
        </mxCell>
      </root>
    </mxGraphModel>
  </diagram>
</mxfile>
